<?xml version="1.0" encoding="utf-8"?>
<!-- Generator: Adobe Illustrator 19.0.0, SVG Export Plug-In . SVG Version: 6.00 Build 0)  -->
<svg version="1.1" id="图层_1" xmlns="http://www.w3.org/2000/svg" xmlns:xlink="http://www.w3.org/1999/xlink" x="0px" y="0px"
	 viewBox="0 1 32.6 32" style="enable-background:new 0 1 32.6 32;" xml:space="preserve">
<style type="text/css">
	.st0{fill:#034F7A;}
</style>
<path class="st0" d="M15.4,1c0.8,0,1.7,0,2.3,0.2c0.3,1.8,0.8,2.2,1.2,4.2c1.2,0.2,2,1,3,1.2c1.6-1.2,2.2-1,3.7-2.1
	c1.1,0.7,2,1.6,2.7,2.7c-1,1.4-0.9,2.1-2.1,3.7l0.7,1.4c0.2,0.6,0.4,1.2,0.6,1.8c1.9,0.3,2.4,0.9,4.1,1.2c0.1,1.3,0.1,2.5,0,3.8
	c-1.8,0.3-2.2,0.8-4.2,1.2c-0.1,1.2-1,2-1.2,3c1.1,1.6,1.1,2.3,2.1,3.8l-0.6,0.8c-0.6,0.7-1.3,1.3-2,1.9c-1.4-1.1-2.1-1-3.7-2.2
	c-0.9,0.5-1.9,0.8-3,1.3c-0.3,2-0.9,2.4-1.1,4.2c-1.1,0-2.7,0.3-3.8,0c-0.3-1.8-0.8-2.2-1.1-4.2c-1.1-0.2-2.1-0.8-3-1.2
	c-1.2,0.9-1.6,0.6-2.7,1.4c-0.2,0.2-0.9,0.8-1.1,0.7c-1.1-0.5-1.8-1.8-2.6-2.6c1-1.5,1-2.2,2.1-3.8c-0.5-0.9-1-1.9-1.2-3
	c-2-0.3-2.4-0.9-4.2-1.2c0-0.7-0.3-3.4,0.1-3.8c1.7-0.3,2.2-0.9,4.1-1.2c0.2-1.1,0.7-2.2,1.2-3C4.7,9.7,4.9,9.3,4.2,8.2
	C4,7.9,3.3,7.2,3.5,7C3.9,6.2,5.3,5,6.1,4.4c1.4,1,2.1,0.9,3.7,2.1l2.2-1l0.9-0.2c0.3-2,0.8-2.4,1.1-4.2L15.4,1z M15.4,10.9
	c-0.5,0.2-1.1,0.2-1.6,0.4c-1.6,0.6-2.9,1.9-3.5,3.6c-1.4,3.6,1,6.7,3.5,7.7c0.7,0.3,1.8,0.6,2.8,0.4c2.4-0.4,4.1-1.6,4.9-3.6
	c1.5-3.5-0.6-6.8-3-7.9C17.5,11.1,16.6,10.9,15.4,10.9z"/>
</svg>
