<?xml version="1.0" encoding="utf-8"?>
<!-- Generator: Adobe Illustrator 19.0.0, SVG Export Plug-In . SVG Version: 6.00 Build 0)  -->
<svg version="1.1" id="图层_1" xmlns="http://www.w3.org/2000/svg" xmlns:xlink="http://www.w3.org/1999/xlink" x="0px" y="0px"
	 viewBox="0 1 32 32" style="enable-background:new 0 1 32 32;" xml:space="preserve">
<style type="text/css">
	.st0{fill:#034F7A;}
</style>
<path class="st0" d="M24.7,21.1c-1.5,0-2.8,0.7-3.7,1.7l-8.9-4.9c0.1-0.4,0.2-0.9,0.2-1.3l8.8-5.2c0.9,0.9,2.2,1.5,3.6,1.5
	c2.7,0,4.9-2.2,4.9-4.9c0-2.7-2.2-4.9-4.9-4.9S19.7,5.2,19.7,8c0,0.1,0,0.1,0,0.2L11,13.2c-0.9-1-2.2-1.6-3.7-1.6
	c-2.7,0-4.9,2.2-4.9,4.9c0,2.7,2.2,4.9,4.9,4.9c1,0,1.9-0.3,2.6-0.8l9.8,5.4c0.1,2.7,2.2,4.8,4.9,4.8c2.7,0,4.9-2.2,4.9-4.9
	C29.6,23.3,27.4,21.1,24.7,21.1z"/>
</svg>
