<?xml version="1.0" standalone="no"?><!DOCTYPE svg PUBLIC "-//W3C//DTD SVG 1.1//EN" "http://www.w3.org/Graphics/SVG/1.1/DTD/svg11.dtd"><svg t="1544683885058" class="icon" style="" viewBox="0 0 1024 1024" version="1.1" xmlns="http://www.w3.org/2000/svg" p-id="4701" xmlns:xlink="http://www.w3.org/1999/xlink" width="32" height="32"><defs><style type="text/css"></style></defs><path d="M450.784288 402.236084c105.525382 0 191.080943-77.265758 191.080943-172.490539 0-95.208409-85.554538-172.4537-191.080943-172.4537-105.524358 0-191.038988 77.246315-191.038988 172.4537C259.744277 324.970326 345.258906 402.236084 450.784288 402.236084zM668.053684 523.375072c-53.728692-50.107211-154.756643-69.840648-220.816175-71.90568-208.853725-6.587022-378.465704 214.18822-378.465704 478.444766 0 8.742105 0.185218 17.557888 0.623193 26.263154l448.840518 0c-14.010085-13.970176-32.774451-40.086997-37.456077-74.90806C480.77944 725.969233 494.789525 602.488921 668.053684 523.375072zM761.693364 581.641103c-113.791649 0-206.003817 92.242867-206.003817 205.994608 0 113.787556 92.211145 205.995631 206.003817 205.995631 113.792673 0 206.003817-92.207052 206.003817-205.995631C967.696158 673.882947 875.485013 581.641103 761.693364 581.641103zM761.693364 934.778956c-81.277118 0-147.149385-65.871243-147.149385-147.142222 0-33.211403 11.408841-63.531965 29.992081-88.184435l205.346855 205.334575C825.229422 923.367045 794.941606 934.778956 761.693364 934.778956zM891.06485 856.32514l-198.101847-198.057845c20.62883-10.972912 43.74634-17.773805 68.729338-17.773805 81.274048 0 147.150408 65.872267 147.150408 147.142222C908.843772 812.580846 902.038786 835.732126 891.06485 856.32514z" p-id="4702" fill="#034F7A"></path></svg>