<?xml version="1.0" standalone="no"?><!DOCTYPE svg PUBLIC "-//W3C//DTD SVG 1.1//EN" "http://www.w3.org/Graphics/SVG/1.1/DTD/svg11.dtd"><svg t="1544683935499" class="icon" style="" viewBox="0 0 1024 1024" version="1.1" xmlns="http://www.w3.org/2000/svg" p-id="4966" xmlns:xlink="http://www.w3.org/1999/xlink" width="32" height="32"><defs><style type="text/css"></style></defs><path d="M640.799458 191.301977l0-25.753547c0-55.725162-45.335535-101.06172-101.06172-101.06172L166.339446 64.48671c-55.725162 0-101.06172 45.336558-101.06172 101.06172l0 25.753547L640.799458 191.301977z" p-id="4967" fill="#034F7A"></path><path d="M602.112344 767.17982c-49.26503 0-89.344864-40.079834-89.344864-89.344864L512.76748 544.55444c0-52.782134 42.940998-95.723132 95.723132-95.723132l350.165148 0 0-75.296917c0-32.752961-13.153578-64.3721-36.090986-86.748736-21.547759-21.021779-49.579185-32.240285-78.92863-31.638581L640.799458 255.147074l0-0.029676L65.277726 255.117398l0 115.321492c-0.025583 1.030469-0.039909 2.061962-0.039909 3.095501l0 466.467991c0 65.897849 51.438533 119.509884 114.664529 119.509884l664.089907 0c63.225997 0 114.664529-53.612035 114.664529-119.509884l0-72.821539L602.112344 767.180843z" p-id="4968" fill="#034F7A"></path><path d="M608.491635 512.64673c-17.593703 0-31.908734 14.314007-31.908734 31.907711l0 133.281539c0 14.0766 11.452843 25.529443 25.529443 25.529443l356.544439 0L958.656783 512.64673 608.491635 512.64673zM673.339572 639.913275c-17.622356 0-31.907711-14.285355-31.907711-31.907711 0-17.622356 14.285355-31.907711 31.907711-31.907711 17.622356 0 31.907711 14.285355 31.907711 31.907711C705.247282 625.62792 690.961928 639.913275 673.339572 639.913275z" p-id="4969" fill="#034F7A"></path></svg>