<?xml version="1.0" standalone="no"?><!DOCTYPE svg PUBLIC "-//W3C//DTD SVG 1.1//EN" "http://www.w3.org/Graphics/SVG/1.1/DTD/svg11.dtd"><svg t="1544684077455" class="icon" style="" viewBox="0 0 1024 1024" version="1.1" xmlns="http://www.w3.org/2000/svg" p-id="6501" xmlns:xlink="http://www.w3.org/1999/xlink" width="32" height="32"><defs><style type="text/css"></style></defs><path d="M511.502 959.502c-60.47 0-119.142-11.848-174.39-35.217-53.35-22.564-101.258-54.864-142.394-95.998-41.135-41.137-73.434-89.046-96-142.397-23.367-55.246-35.215-113.92-35.215-174.387 0-60.47 11.848-119.142 35.216-174.39 22.565-53.35 54.864-101.26 96-142.395 41.134-41.136 89.044-73.434 142.394-95.999 55.247-23.367 113.92-35.217 174.389-35.217 60.469 0 119.142 11.849 174.389 35.217 53.35 22.565 101.26 54.864 142.394 95.999 41.138 41.136 73.436 89.044 96 142.395 23.368 55.247 35.218 113.92 35.218 174.39 0 60.467-11.849 119.141-35.217 174.387-22.565 53.351-54.864 101.26-96 142.397-41.136 41.135-89.044 73.434-142.395 95.998-55.247 23.369-113.921 35.217-174.39 35.217z m0-832c-211.738 0-384 172.261-384 384 0 211.74 172.262 384 384 384s384-172.26 384-384c0-211.738-172.262-384-384-384z m-158.57 507.625h-63.679V465.321c-11.69 0-21.225-9.535-21.225-21.226V422.87h106.131v21.226c0 11.69-9.535 21.226-21.226 21.226v169.806z m127.358 0h-63.678V465.321c-11.69 0-21.226-9.535-21.226-21.226V422.87h106.13v21.226c0 11.69-9.536 21.226-21.226 21.226v169.806z m127.356 0h-63.678V465.321c-11.692 0-21.227-9.535-21.227-21.226V422.87h106.13v21.226c0 11.69-9.534 21.226-21.225 21.226v169.806z m127.355 0h-63.676V465.321c-11.692 0-21.225-9.535-21.225-21.226V422.87h106.126v21.226c0 11.69-9.534 21.226-21.225 21.226v169.806z m21.225 63.68c11.69 0 21.226 9.536 21.226 21.224v21.227c0 11.692-9.536 21.228-21.226 21.228H268.03c-11.692 0-21.225-9.536-21.225-21.228v-21.227c0-11.691 9.534-21.223 21.225-21.223h21.226v-42.452h445.745v42.452h21.225zM267.2 401.646c-9.204 0-17.288-6.427-19.691-15.69-2.406-9.246 1.45-19.03 9.41-23.88L501.639 213.49a19.726 19.726 0 0 1 20.562 0l242.525 147.236c7.46 3.15 12.726 10.78 12.726 19.693 0 11.73-9.12 21.225-20.395 21.225H267.2zM512.403 260.6c-25.206 0-45.604 20.416-45.603 45.622 0 25.227 20.398 45.623 45.603 45.623 25.249 0 45.644-20.396 45.644-45.623 0-25.206-20.394-45.622-45.644-45.622z" p-id="6502" fill="#034F7A"></path></svg>