<?xml version="1.0" standalone="no"?><!DOCTYPE svg PUBLIC "-//W3C//DTD SVG 1.1//EN" "http://www.w3.org/Graphics/SVG/1.1/DTD/svg11.dtd"><svg t="1544683985016" class="icon" style="" viewBox="0 0 1024 1024" version="1.1" xmlns="http://www.w3.org/2000/svg" p-id="6217" xmlns:xlink="http://www.w3.org/1999/xlink" width="32" height="32"><defs><style type="text/css"></style></defs><path d="M874.395704 958.326255 234.863099 958.326255c-23.547299 0-42.635029-19.087731-42.635029-42.635029L192.228069 766.466576l-85.271082 0L106.956987 595.924411l85.271082 0L192.228069 425.382247l-85.271082 0L106.956987 254.840082l85.271082 0L192.228069 105.615433c0-23.547299 19.087731-42.635029 42.635029-42.635029l639.532605 0c23.547299 0 42.635029 19.087731 42.635029 42.635029l0 810.074769C917.031756 939.238524 897.944026 958.326255 874.395704 958.326255zM618.58348 276.157597 320.134181 276.157597 320.134181 318.79365l298.448276 0L618.582457 276.157597zM789.124622 489.335814 320.134181 489.335814l0 42.635029 468.99044 0L789.124622 489.335814zM789.124622 702.513008 320.134181 702.513008l0 42.635029 468.99044 0L789.124622 702.513008z" p-id="6218" fill="#034F7A"></path></svg>