<?xml version="1.0" encoding="utf-8"?>
<!-- Generator: Adobe Illustrator 19.0.0, SVG Export Plug-In . SVG Version: 6.00 Build 0)  -->
<svg version="1.1" id="图层_1" xmlns="http://www.w3.org/2000/svg" xmlns:xlink="http://www.w3.org/1999/xlink" x="0px" y="0px"
	 viewBox="0 -4 32 32" style="enable-background:new 0 -4 32 32;" xml:space="preserve">
<g>
	<path d="M17.2,4.9h-6.3c-0.2,0-0.3-0.1-0.4,0.1s-0.1,0.3-0.1,0.4v14.5h7.2l0.1-14.5c0-0.2,0-0.3-0.1-0.4C17.4,5,17.3,4.9,17.2,4.9z
		 M13.4,11.4h-1.5V9.9h1.5V11.4z M13.4,8.4h-1.5V6.9h1.5V8.4z M16.3,11.4h-1.5V9.9h1.5V11.4z M16.3,8.4h-1.5V6.9h1.5V8.4z"/>
	<path d="M16.1-2.4C7.5-2.5,0.6,4.4,0.6,13c0,8.5,6.9,15.4,15.4,15.4S31.5,21.5,31.5,13S24.6-2.4,16.1-2.4z M25,20.9H8.5
		c-0.3,0-0.5-0.2-0.5-0.5c0-0.3,0.2-0.5,0.5-0.5h1v-15c0-0.3,0.1-0.5,0.2-0.7c0.2-0.2,0.5-0.3,0.7-0.3h7.2c0.3,0,0.5,0.1,0.7,0.3
		s0.3,0.5,0.3,0.7v15h3.9c0.3,0,0.5-0.2,0.5-0.5v-6.6c0-0.2,0-0.3-0.1-0.4c-0.2,0-0.3-0.1-0.4-0.1H20v-1h3c0.6,0,1,0.5,1,1v7.6h1
		c0.2,0,0.5,0.2,0.5,0.5C25.5,20.7,25.3,20.9,25,20.9z"/>
</g>
</svg>
