<?xml version="1.0" encoding="utf-8"?>
<!-- Generator: Adobe Illustrator 19.0.0, SVG Export Plug-In . SVG Version: 6.00 Build 0)  -->
<svg version="1.1" id="图层_1" xmlns="http://www.w3.org/2000/svg" xmlns:xlink="http://www.w3.org/1999/xlink" x="0px" y="0px"
	 viewBox="-404 282.3 32 32" style="enable-background:new -404 282.3 32 32;" xml:space="preserve">
<g>
	<path d="M-400.1,285.6h24.2v4.4h-24.2V285.6z M-388,293.5c2.6,0,5,1.1,6.8,2.8l4.9-5.4h-23.5l4.9,5.4
		C-393.1,294.6-390.7,293.5-388,293.5z M-388,294.8c-4.8,0-8.7,3.9-8.7,8.7c0,4.8,3.9,8.7,8.7,8.7s8.7-3.9,8.7-8.7
		C-379.3,298.7-383.2,294.8-388,294.8z M-384.6,308.3l-3.4-1.8l-3.4,1.8l0.6-3.8l-2.7-2.7l3.8-0.6l1.7-3.4l1.7,3.4l3.8,0.6l-2.7,2.7
		L-384.6,308.3z"/>
</g>
</svg>
