<?xml version="1.0" encoding="utf-8"?>
<!-- Generator: Adobe Illustrator 19.0.0, SVG Export Plug-In . SVG Version: 6.00 Build 0)  -->
<svg version="1.1" id="图层_1" xmlns="http://www.w3.org/2000/svg" xmlns:xlink="http://www.w3.org/1999/xlink" x="0px" y="0px"
	 viewBox="0 -4 32.4 32" style="enable-background:new 0 -4 32.4 32;" xml:space="preserve">
<path d="M31.5,7.3c-4.8-2.1-9.6-4.1-14.4-6.2c-0.5-0.2-1-0.2-1.5,0C10.9,3.2,6.1,5.2,1.4,7.2c-0.5,0.2-1,0.4-1,1.1
	c0,0.7,0.5,0.9,1,1.1c4.4,1.9,8.8,3.7,13.2,5.7c1.2,0.6,2.3,0.7,3.5,0c0.6-0.4,1.3-0.6,2-0.9c2.8-1.2,5.5-2.4,8.4-3.6v10.1
	c0,0.6,0.2,0.8,0.8,0.8c0.6,0,0.8-0.1,0.8-0.8c0-3,0.1-6.1-0.1-9.1c0-1.2,0.2-2,1.5-2.3c0.5-0.1,0.9-0.4,0.9-1S32,7.5,31.5,7.3z"/>
<path d="M26.5,14.1c0-0.7-0.2-0.7-0.7-0.5c-2.7,1.2-5.4,2.3-8,3.5c-1,0.4-1.8,0.4-2.8,0c-2.7-1.2-5.4-2.3-8.1-3.5
	c-0.5-0.2-0.6-0.1-0.6,0.4v4c-0.3,2.7,1.1,4.5,3.4,5.5c4.6,2.1,9.2,2,13.7-0.2c2.1-1.1,3.3-2.7,3.1-5.3
	C26.4,16.7,26.5,15.4,26.5,14.1z"/>
</svg>
