<?xml version="1.0" encoding="utf-8"?>
<!-- Generator: Adobe Illustrator 19.0.0, SVG Export Plug-In . SVG Version: 6.00 Build 0)  -->
<svg version="1.1" id="图层_1" xmlns="http://www.w3.org/2000/svg" xmlns:xlink="http://www.w3.org/1999/xlink" x="0px" y="0px"
	 viewBox="0 -4 32 32" style="enable-background:new 0 -4 32 32;" xml:space="preserve">
<path d="M26.5,22.4V1.3h-21v21.1H4.3v2.3h23.4v-2.3C27.7,22.4,26.5,22.4,26.5,22.4z M12.5,17.7h-2.3v-2.3h2.3V17.7z M12.5,13h-2.3
	v-2.3h2.3V13z M12.5,8.3h-2.3V6h2.3V8.3z M17.2,22.4h-2.3V20h2.3V22.4z M17.2,17.7h-2.3v-2.3h2.3V17.7z M17.2,13h-2.3v-2.3h2.3V13z
	 M17.2,8.3h-2.3V6h2.3V8.3z M21.9,17.7h-2.3v-2.3h2.3V17.7z M21.9,13h-2.3v-2.3h2.3V13z M21.9,8.3h-2.3V6h2.3V8.3z"/>
</svg>
