<?xml version="1.0" encoding="utf-8"?>
<!-- Generator: Adobe Illustrator 19.0.0, SVG Export Plug-In . SVG Version: 6.00 Build 0)  -->
<svg version="1.1" id="图层_1" xmlns="http://www.w3.org/2000/svg" xmlns:xlink="http://www.w3.org/1999/xlink" x="0px" y="0px"
	 viewBox="0 -4 32 32" style="enable-background:new 0 -4 32 32;" xml:space="preserve">
<path d="M16,26.8c-7.9,0-14.2-6.4-14.2-14.2S8.1-1.7,16-1.7s14.2,6.4,14.2,14.2S23.9,26.8,16,26.8z M19,19.2c3.6,0,6.5-3.2,6.5-7.1
	S22.6,5,19,5h-4.3v14.2H19z M7.4,19.2c2.9,0,5.2-2.2,5.2-5V5h-1.7v9.2c0,1.8-1.5,3.3-3.4,3.3h-1v1.7H7.4L7.4,19.2L7.4,19.2z"/>
<path d="M19,6.7h-2.6v10.9H19c2.6,0,4.7-2.4,4.7-5.4S21.6,6.7,19,6.7L19,6.7L19,6.7z"/>
</svg>
