<?xml version="1.0" encoding="utf-8"?>
<!-- Generator: Adobe Illustrator 19.0.0, SVG Export Plug-In . SVG Version: 6.00 Build 0)  -->
<svg version="1.1" id="图层_1" xmlns="http://www.w3.org/2000/svg" xmlns:xlink="http://www.w3.org/1999/xlink" x="0px" y="0px"
	 viewBox="0 -4 32 32" style="enable-background:new 0 -4 32 32;" xml:space="preserve">
<path d="M15.8,0.8C9,0.8,3.5,6.3,3.5,13.2c0,0.5,0,1.1,0.1,1.6l1.3-0.2c-0.1-0.5-0.1-1-0.1-1.5c0-0.6,0-1.1,0.1-1.7h2.8
	c-0.1,0.6-0.1,1.3-0.2,1.9h1.3c0-0.7,0.1-1.3,0.2-2h5.8v2.9H16v-2.9h6.4c0.1,0.9,0.2,1.8,0.2,2.7c0,1.5-0.2,3-0.5,4.4l1.2,0.3
	c0.3-1.5,0.5-3.1,0.5-4.7c0-0.9-0.1-1.8-0.2-2.7h3.2c0.1,0.5,0.1,1.1,0.1,1.6c0,2.6-1,5.1-2.7,7c-1.2,0.8-3,1.7-5.4,1.7
	c-0.9,0-1.8-0.1-2.7-0.4c-1.6-0.5-2.8-1.4-3.6-2.2l2.9-2.8L4.6,16.1l0.5,10.3l3.4-3.2c2.1,1.6,4.7,2.4,7.3,2.4
	c3.1,0,6.3-1.3,8.6-3.6c2.4-2.4,3.8-5.5,3.8-8.8C28.2,6.3,22.7,0.8,15.8,0.8z M11.2,3.1c-0.3,0.3-0.6,0.6-0.8,1
	C10.3,4,10.1,3.8,10,3.7C10.4,3.5,10.8,3.3,11.2,3.1z M7.8,10.2H5.1c0.6-2.3,2-4.3,3.8-5.8c0.2,0.3,0.4,0.5,0.7,0.7
	C8.8,6.6,8.2,8.4,7.8,10.2z M14.7,10.3H9.1C9.4,8.7,10,7.2,10.6,6c1.2,0.8,2.6,1.3,4,1.4L14.7,10.3L14.7,10.3z M14.7,6.1
	c-1.2-0.1-2.4-0.5-3.3-1.2c0.9-1.3,2.1-2.2,3.3-2.5V6.1z M20.9,3.3c-0.1,0.1-0.2,0.3-0.3,0.4C20.3,3.3,20,3,19.7,2.8
	C20.1,2.9,20.6,3.1,20.9,3.3z M16,2.3c1.3,0.1,2.6,0.9,3.7,2.3C18.6,5.4,17.4,6,16,6.1V2.3z M16,10.3V7.4c1.6-0.1,3.2-0.7,4.4-1.7
	l0,0c0.8,1.3,1.4,2.9,1.7,4.6L16,10.3z M23.4,10.3c-0.4-2-1-3.7-1.9-5.2c0-0.1-0.1-0.2-0.1-0.2C21.6,4.6,21.8,4.3,22,4
	c2.2,1.5,3.8,3.7,4.5,6.3H23.4z"/>
</svg>
