<?xml version="1.0" encoding="utf-8"?>
<!-- Generator: Adobe Illustrator 19.0.0, SVG Export Plug-In . SVG Version: 6.00 Build 0)  -->
<svg version="1.1" id="图层_1" xmlns="http://www.w3.org/2000/svg" xmlns:xlink="http://www.w3.org/1999/xlink" x="0px" y="0px"
	 viewBox="0 -4 32 32" style="enable-background:new 0 -4 32 32;" xml:space="preserve">
<path d="M29.2,18.2v-13c0-2.8-2.3-5.1-5.1-5.1H7.9c-2.8,0-5.1,2.3-5.1,5.1v16.2c0,2.8,2.3,5.1,5.1,5.1h16.2c2.5,0,4.6-1.8,5-4.2
	c-1.3-0.6-7.2-3.1-10.2-4.5c-2.3,2.8-4.7,4.5-8.4,4.5s-6.1-2.2-5.8-5c0.2-1.8,1.4-4.8,6.8-4.2c2.8,0.3,4.1,0.8,6.4,1.6
	c0.6-1.1,1.1-2.3,1.5-3.6H9.2v-1h5.1V8.3H8.1V7.2h6.2V4.5c0,0,0.1-0.4,0.5-0.4h2.5v3h6.6v1.1h-6.6V10h5.4c-0.5,2-1.2,3.9-2.2,5.5
	C22.1,16.1,29.2,18.2,29.2,18.2L29.2,18.2z M10.1,20.6c-3.9,0-4.5-2.4-4.3-3.4s1.3-2.3,3.5-2.3c2.5,0,4.7,0.6,7.3,1.9
	C14.8,19.1,12.5,20.6,10.1,20.6L10.1,20.6z"/>
</svg>
