<?xml version="1.0" encoding="utf-8"?>
<!-- Generator: Adobe Illustrator 19.0.0, SVG Export Plug-In . SVG Version: 6.00 Build 0)  -->
<svg version="1.1" id="图层_1" xmlns="http://www.w3.org/2000/svg" xmlns:xlink="http://www.w3.org/1999/xlink" x="0px" y="0px"
	 viewBox="0 -4 32 32" style="enable-background:new 0 -4 32 32;" xml:space="preserve">
<path d="M29.6,12.4L24.4,7c-0.2-0.2-0.6-0.4-0.9-0.4h-4.7V5.1c0-1.2-1-2.2-2.2-2.2H4.2C3,2.9,2,3.9,2,5.1v15.3
	c0,0.7,0.6,1.3,1.2,1.3h0.6c0,2.2,1.8,4,4,4s4-1.8,4-4h8.3c0,2.2,1.8,4,4,4c2.2,0,4-1.8,4-4H30v-8.4C30,13,29.9,12.7,29.6,12.4z
	 M7.9,23.2c-0.8,0-1.5-0.7-1.5-1.5s0.7-1.5,1.5-1.5c0.8,0,1.5,0.6,1.5,1.5C9.4,22.5,8.7,23.2,7.9,23.2z M24.1,23.2
	c-0.8,0-1.5-0.7-1.5-1.5s0.7-1.5,1.5-1.5c0.9,0,1.5,0.6,1.5,1.5C25.6,22.5,24.9,23.2,24.1,23.2z M27.5,16H20V9.1h2.4
	c0.3,0,0.7,0.2,0.9,0.4l4.2,4.3V16z"/>
</svg>
