<?xml version="1.0" encoding="utf-8"?>
<!-- Generator: Adobe Illustrator 19.0.0, SVG Export Plug-In . SVG Version: 6.00 Build 0)  -->
<svg version="1.1" id="图层_1" xmlns="http://www.w3.org/2000/svg" xmlns:xlink="http://www.w3.org/1999/xlink" x="0px" y="0px"
	 viewBox="0 -4 32 32" style="enable-background:new 0 -4 32 32;" xml:space="preserve">
<style type="text/css">
	.st0{fill:#050505;}
</style>
<path class="st0" d="M16.6-1c-5,0-9.1,4.1-9.1,9.1s4.1,9.1,9.1,9.1s9.1-4.1,9.1-9.1S21.6-1,16.6-1z M20.5,8.4l-3.4,3.4
	c-0.2,0.2-0.5,0.2-0.7,0L13,8.4c-0.2-0.2-0.2-0.5,0-0.7l3.4-3.4c0.2-0.2,0.5-0.2,0.7,0l3.4,3.4C20.7,8,20.7,8.3,20.5,8.4z"/>
<path class="st0" d="M7.6,16.2c0.3-0.1,0.6,0,0.9,0.1c1.6,0.8,6.6,4.2,8.2,4.2c1.8,0,9-4.5,9.9-4.5s2,0.1,2,1.1
	c0,0.9-8.5,7.3-11,9.4c-0.5,0.4-1.1,0.5-1.6,0.3l-8.4-4.6c-0.5-0.2-1-0.3-1.4,0l-1.1,0.3c-0.2,0.1-0.4,0-0.4-0.2V18
	c0-0.4,0.3-0.8,0.7-0.8L7.6,16.2z"/>
</svg>
