<?xml version="1.0" encoding="utf-8"?>
<!-- Generator: Adobe Illustrator 19.0.0, SVG Export Plug-In . SVG Version: 6.00 Build 0)  -->
<svg version="1.1" id="图层_1" xmlns="http://www.w3.org/2000/svg" xmlns:xlink="http://www.w3.org/1999/xlink" x="0px" y="0px"
	 viewBox="0 -4 32 32" style="enable-background:new 0 -4 32 32;" xml:space="preserve">
<path d="M24.9,27.2c0,0.9-0.9,1.8-1.8,1.8H8.9c-0.9,0-1.8-0.9-1.8-1.8s0.9-1.8,1.8-1.8h14.2C24,25.4,24.9,26.3,24.9,27.2z M16,5.9
	v14.2C16,20.1,16,5.9,16,5.9z M8.9,13v7.1V13z M28.4-3H3.6C1.6-3,0-1.4,0,0.6v17.8c0,2,1.6,3.6,3.6,3.6h24.9c2,0,3.6-1.6,3.6-3.6
	V0.6C32-1.4,30.4-3,28.4-3z M3.6,18.3V0.6h24.9v17.8h-3.6V9.5c0-0.9-0.9-1.8-1.8-1.8s-1.8,0.9-1.8,1.8v8.9h-3.6V5.9
	c0-0.9-0.9-1.8-1.8-1.8S14.2,5,14.2,5.9v12.4h-3.6V13c0-0.9-0.9-1.8-1.8-1.8S7.1,12.1,7.1,13v5.3H3.6z"/>
</svg>
