<?xml version="1.0" encoding="utf-8"?>
<!-- Generator: Adobe Illustrator 19.0.0, SVG Export Plug-In . SVG Version: 6.00 Build 0)  -->
<svg version="1.1" id="图层_1" xmlns="http://www.w3.org/2000/svg" xmlns:xlink="http://www.w3.org/1999/xlink" x="0px" y="0px"
	 viewBox="0 -4 32 32" style="enable-background:new 0 -4 32 32;" xml:space="preserve">
<g>
	<path d="M25.2,0.3h-2.4c-0.2,0-0.4,0.1-0.6,0.2C22,0.7,22,0.9,22,1.1s0.1,0.4,0.2,0.6C22.5,1.9,22.7,2,22.9,2h2.4v2.5
		c0,0.2,0.1,0.4,0.2,0.6c0.3,0.3,0.8,0.3,1.1,0l0,0c0.2-0.2,0.2-0.4,0.2-0.6V2C26.8,1.1,26.1,0.3,25.2,0.3z M26,13
		c-0.2,0-0.4,0.1-0.6,0.2c-0.1,0.1-0.2,0.3-0.2,0.6v2.4h-2.4c-0.2,0-0.4,0.1-0.6,0.2l-0.1,0.1c-0.9-0.9-1.9-1.6-3-2
		c2.3-1.3,3.7-3.9,3.2-6.9c-0.4-2.7-2.5-5-5.2-5.6c-0.5-0.1-1-0.2-1.5-0.2C12,1.9,9,5,9,8.7l0,0c0,2.5,1.3,4.6,3.3,5.8
		c-1.1,0.5-2.1,1.2-3,2c0-0.1-0.1-0.1-0.1-0.1c-0.1-0.1-0.3-0.2-0.6-0.2H6.3v-2.4c0-0.2-0.1-0.4-0.2-0.6C5.9,13.1,5.7,13,5.5,13
		s-0.4,0.1-0.6,0.2c-0.1,0.1-0.2,0.3-0.2,0.6v2.4c0,0.9,0.7,1.6,1.6,1.6h1.9C6.9,19.5,6,21.6,5.7,24c-0.1,0.9,0.6,1.7,1.5,1.7h17.2
		c0.9,0,1.6-0.8,1.5-1.7c-0.3-2.4-1.2-4.5-2.5-6.3h2c0.9,0,1.6-0.7,1.6-1.6v-2.4c0-0.2-0.1-0.4-0.2-0.6C26.5,13.1,26.2,13,26,13
		L26,13z M5.5,5.4c0.2,0,0.4-0.1,0.6-0.2C6.2,5,6.3,4.8,6.3,4.6V2h2.4C8.8,2,9,1.9,9.2,1.8c0.2-0.2,0.2-0.4,0.2-0.6S9.3,0.8,9.2,0.6
		C9,0.4,8.8,0.3,8.6,0.3H6.3C5.4,0.3,4.7,1.1,4.7,2v2.5c0,0.2,0.1,0.4,0.2,0.6C5,5.3,5.2,5.4,5.5,5.4L5.5,5.4z"/>
</g>
</svg>
