<?xml version="1.0" standalone="no"?><!DOCTYPE svg PUBLIC "-//W3C//DTD SVG 1.1//EN" "http://www.w3.org/Graphics/SVG/1.1/DTD/svg11.dtd"><svg t="1545105767278" class="icon" style="" viewBox="0 0 1024 1024" version="1.1" xmlns="http://www.w3.org/2000/svg" p-id="5097" xmlns:xlink="http://www.w3.org/1999/xlink" width="32" height="32"><defs><style type="text/css"></style></defs><path d="M512 25.6C243.2 25.6 25.6 243.2 25.6 512s217.6 486.4 486.4 486.4 486.4-217.6 486.4-486.4S780.8 25.6 512 25.6z m147.2 576c12.8 0 25.6 12.8 25.6 25.6s-12.8 25.6-25.6 25.6h-128v83.2c0 12.8-12.8 25.6-25.6 25.6s-25.6-12.8-25.6-25.6v-83.2h-128c-19.2 6.4-32-6.4-32-25.6s12.8-25.6 25.6-25.6h128V531.2h-128c-12.8 0-25.6-6.4-25.6-25.6s12.8-25.6 25.6-25.6h134.4v-6.4s-6.4 0-6.4-6.4L377.6 352c-12.8-12.8-6.4-25.6 0-38.4 12.8-6.4 32-6.4 38.4 6.4l89.6 102.4L595.2 320c12.8-12.8 25.6-12.8 38.4-6.4 12.8 12.8 12.8 25.6 6.4 38.4L537.6 473.6c0 6.4-6.4 6.4-12.8 6.4h134.4c12.8 0 25.6 12.8 25.6 25.6s-12.8 25.6-25.6 25.6h-128v70.4h128z" fill="#2c2c2c" p-id="5098"></path></svg>