<?xml version="1.0" standalone="no"?><!DOCTYPE svg PUBLIC "-//W3C//DTD SVG 1.1//EN" "http://www.w3.org/Graphics/SVG/1.1/DTD/svg11.dtd"><svg t="1545105729519" class="icon" style="" viewBox="0 0 1349 1024" version="1.1" xmlns="http://www.w3.org/2000/svg" p-id="4810" xmlns:xlink="http://www.w3.org/1999/xlink" width="42.15625" height="32"><defs><style type="text/css"></style></defs><path d="M769.84335 949.045411V58.207685c0-33.331216-33.331216-58.207685-66.662432-58.207685H170.369231c-25.03906 0-41.623372 8.292156-49.915528 25.03906-16.584312 16.584312-16.584312 33.331216-16.584313 49.915529v882.382978h-41.623372c-16.584312 0-25.03906 8.292156-25.03906 25.039061-8.292156 16.584312 0 25.03906 8.292156 33.331216s16.584312 8.292156 33.331216 8.292156h998.96094c16.584312 0 25.03906-8.292156 25.03906-25.03906 8.292156-16.584312-8.292156-41.623372-25.03906-41.623373h-33.331216v-557.688154c0-33.331216-16.584312-49.915529-49.915529-49.915529h-149.909177v591.019371l-8.292157 8.292156h-66.499841zM303.694097 416.233725v-66.662433h266.324547v66.662433H303.694097z m0 358.02604v-66.662433h266.324547v66.662433H303.694097z m0-599.474119h266.324547v66.662433H320.278409c-8.292156 0-8.292156 0-8.292156-8.292156C303.694097 208.116862 303.694097 191.53255 303.694097 174.785646z m0 358.02604h266.324547v66.662433H303.694097v-66.662433z m0 0" fill="#2c2c2c" p-id="4811"></path></svg>