<?xml version="1.0" standalone="no"?><!DOCTYPE svg PUBLIC "-//W3C//DTD SVG 1.1//EN" "http://www.w3.org/Graphics/SVG/1.1/DTD/svg11.dtd"><svg t="1545105915829" class="icon" style="" viewBox="0 0 1024 1024" version="1.1" xmlns="http://www.w3.org/2000/svg" p-id="11879" xmlns:xlink="http://www.w3.org/1999/xlink" width="32" height="32"><defs><style type="text/css"></style></defs><path d="M513.224386 238.541885l-0.122797 0c-61.96733 0-114.88761 60.600193-135.953392 145.867182l272.027533 0C628.166231 299.142078 575.314513 238.541885 513.224386 238.541885z" p-id="11880" fill="#2c2c2c"></path><path d="M513.284761 3.069919C232.88863 3.069919 5.660418 230.361575 5.660418 510.694261c0 280.331663 227.228211 507.624343 507.624343 507.624343 280.397155 0 507.624343-227.291656 507.624343-507.624343C1020.909104 230.361575 793.680892 3.069919 513.284761 3.069919zM196.01993 859.68363l51.123354-475.274564 69.77004 0c26.894534-129.263016 104.601336-222.705198 196.311061-222.705198 91.829452 0 169.537278 93.442182 196.430788 222.705198l46.658669 0 74.236771 475.274564L196.01993 859.68363z" p-id="11881" fill="#2c2c2c"></path></svg>